# xmcd
#
# Track frame offsets: 
#        150
#        13188
#        35696
#        51566
#        65152
#        78163
#        94154
#        107694
#        121379
#        137523
#        151297
#        165072
#        183680
#        199387
#        212004
#        222883
#        236261
#        253245
#
# Disc length: 3515 seconds
#
# Revision: 1
# Processed by: cddbd v1.5.2PL0 Copyright (c) Steve Scherf et al.
# Submitted via: ExactAudioCopy v1.0b4
#
DISCID=020db912
DTITLE=Various Artist - Smooth Jazz - CD 2
DYEAR=2003
DGENRE=Smooth Jazz
TTITLE0=Dionne Warwick - Walk On By
TTITLE1=Bill Withers and Grover Washington Jr. - Just The Two Of Us
TTITLE2=Dusty Springfield - The Look Of Love
TTITLE3=Stan Getz - Corcovado
TTITLE4=Betty Swann - Till It Like It Is
TTITLE5=Ella Fitzgerald - Ev'ry Time We Say Goodbye
TTITLE6=Sarah Vaughan - Misty
TTITLE7=Nina Simone - My Baby Just Care For Me
TTITLE8=Tony Bennett - Night And Day
TTITLE9=Louis Armstrong - C'est Si Bon
TTITLE10=Art Blakey - Moanin'
TTITLE11=Freddie Ravel - Sunny Side Up
TTITLE12=Richard Elliot - Crush
TTITLE13=Willie Bobo - Spanish Grease
TTITLE14=Anita O'Day - Tea For Two
TTITLE15=Peggy Lee - They Can't Take That Away From Me
TTITLE16=Ella Fitzgerald - Check To Check
TTITLE17=Louis Armstrong - What A Wonderful World
EXTD=YEAR: 2003
EXTT0=
EXTT1=
EXTT2=
EXTT3=
EXTT4=
EXTT5=
EXTT6=
EXTT7=
EXTT8=
EXTT9=
EXTT10=
EXTT11=
EXTT12=
EXTT13=
EXTT14=
EXTT15=
EXTT16=
EXTT17=
PLAYORDER=
